<?xml version="1.0" encoding="UTF-8" standalone="no"?>
<svg
   width="145.55478"
   height="19.07959"
   viewBox="0 0 145.55478 19.07959"
   fill="none"
   version="1.1"
   id="svg7"
   xmlns="http://www.w3.org/2000/svg"
   xmlns:svg="http://www.w3.org/2000/svg">
  <defs
     id="defs7">
    <rect
       x="196.74644"
       y="-17.171658"
       width="135.04491"
       height="52.679153"
       id="rect8" />
  </defs>
  <g
     id="g10"
     transform="scale(0.52143174)">
    <path
       d="m 36.330731,10.462541 c 0.35,-0.3492 0.926,-0.3385 1.289,0.0237 l 7.5,7.5006 c 0.362,0.3623 0.373,0.939 0.024,1.2882 l -13.823,13.823 c -0.349,0.3491 -0.926,0.3385 -1.288,-0.0238 l -7.501,-7.5006 c -0.362,-0.3622 -0.373,-0.939 -0.024,-1.2881 z"
       fill="#ffffff"
       fill-opacity="0.6"
       id="path1" />
    <path
       d="m 26.062731,0.28094078 c 0.373,-0.3732 0.976,-0.3748 1.348,-0.0035 l 7.687,7.68680002 c 0.371,0.3713 0.369,0.9748 -0.004,1.348 l -24.211,24.2110002 c -0.373,0.3732 -0.977,0.3748 -1.348,0.0035 l -7.687,-7.6868 c -0.371,-0.3713 -0.369,-0.9747 0.004,-1.3479 z"
       fill="#ffffff"
       fill-opacity="0.35"
       id="path2" />
    <path
       d="m 20.869731,23.061241 -0.106,-0.1049 -0.105,0.1049 -10.208,10.1364 -8.53,-8.4713 -0.106,-0.105 -0.106,0.105 -1.389,1.3794 -0.107,0.1064 0.107,0.1064 10.026,9.9556 0.105,0.105 0.106,-0.105 10.207,-10.1363 9.801,9.7323 0.044,0.0436 h 0.062 8.755 0.15 v -0.15 -1.9507 -0.15 h -0.15 -7.88 z"
       fill="#ffd13e"
       stroke="#002d3c"
       stroke-width="0.3"
       id="path3" />
    <path
       d="m 37.733731,28.920841 c -0.33,0.3324 -0.534,0.7708 -0.576,1.2389 l -0.408,4.5504 c -0.053,0.5997 0.426,1.1117 1.023,1.0933 l 4.812,-0.1482 c 0.507,-0.0156 0.989,-0.2255 1.348,-0.5869 l 6.064,-6.1078 -3.265,-3.2812 -2.886,-2.9144 z"
       fill="#ffffff"
       id="path4" />
    <path
       d="m 44.780731,21.823041 6.151,6.1957 1.451,-1.4614 c 0.389,-0.3919 0.389,-1.0273 0,-1.4192 l -4.742,-4.7764 c -0.389,-0.392 -1.02,-0.392 -1.409,0 z"
       fill="#ffffff"
       id="path5" />
    <path
       d="m 63.196731,23.750641 v -10.1818 h 4.206 c 0.762,0 1.42,0.1375 1.973,0.4126 0.557,0.2718 0.986,0.6629 1.288,1.1733 0.302,0.5071 0.452,1.1087 0.452,1.8047 0,0.706 -0.154,1.3059 -0.462,1.7997 -0.308,0.4906 -0.746,0.8651 -1.313,1.1236 -0.566,0.2552 -1.237,0.3828 -2.013,0.3828 h -2.66 v -1.9389 h 2.203 c 0.371,0 0.681,-0.0481 0.929,-0.1442 0.252,-0.0994 0.443,-0.2486 0.572,-0.4474 0.129,-0.2022 0.194,-0.4607 0.194,-0.7756 0,-0.3149 -0.065,-0.575 -0.194,-0.7805 -0.129,-0.2088 -0.32,-0.3646 -0.572,-0.4674 -0.252,-0.106 -0.561,-0.1591 -0.929,-0.1591 h -1.213 v 8.1982 z m 5.732,-4.6534 2.535,4.6534 h -2.684 l -2.486,-4.6534 z m 7.877,4.6534 v -10.1818 h 6.95 v 1.9986 h -4.489 v 2.088 h 4.047 v 2.0036 h -4.047 v 4.0916 z m 21.772,-6.4929 h -2.486 c -0.033,-0.2552 -0.101,-0.4856 -0.204,-0.691 -0.103,-0.2055 -0.238,-0.3812 -0.408,-0.527 -0.169,-0.1459 -0.369,-0.2569 -0.601,-0.3331 -0.229,-0.0796 -0.482,-0.1194 -0.761,-0.1194 -0.494,0 -0.919,0.121 -1.277,0.363 -0.355,0.2419 -0.629,0.5916 -0.821,1.049 -0.189,0.4574 -0.283,1.0109 -0.283,1.6605 0,0.6761 0.096,1.2429 0.288,1.7003 0.196,0.454 0.469,0.7971 0.821,1.0291 0.354,0.2287 0.773,0.343 1.257,0.343 0.272,0 0.519,-0.0348 0.741,-0.1044 0.225,-0.0696 0.423,-0.1707 0.592,-0.3032 0.172,-0.1359 0.313,-0.3 0.422,-0.4922 0.113,-0.1956 0.191,-0.416 0.234,-0.6612 l 2.486,0.0149 c -0.043,0.4507 -0.174,0.8949 -0.393,1.3324 -0.215,0.4375 -0.512,0.8368 -0.89,1.1981 -0.378,0.358 -0.838,0.643 -1.382,0.8551 -0.54,0.2121 -1.16,0.3182 -1.859,0.3182 -0.922,0 -1.747,-0.2022 -2.476,-0.6065 -0.726,-0.4077 -1.299,-1.001 -1.72,-1.7799 -0.421,-0.7788 -0.632,-1.7268 -0.632,-2.8437 0,-1.1203 0.214,-2.0698 0.642,-2.8487 0.427,-0.7789 1.005,-1.3705 1.735,-1.7749 0.729,-0.4043 1.546,-0.6065 2.451,-0.6065 0.616,0 1.186,0.0862 1.71,0.2585 0.524,0.169 0.984,0.4176 1.382,0.7457 0.398,0.3248 0.721,0.7242 0.969,1.1982 0.249,0.474 0.403,1.0159 0.463,1.6257 z m 13.095999,6.4929 v -10.1818 h 7.099 v 1.9986 h -4.638 v 2.088 h 4.275 v 2.0036 h -4.275 v 2.093 h 4.638 v 1.9986 z m 16.744,0 h -3.764 v -10.1818 h 3.759 c 1.037,0 1.931,0.2038 2.68,0.6115 0.752,0.4043 1.332,0.9877 1.74,1.75 0.407,0.759 0.611,1.6671 0.611,2.7244 0,1.0606 -0.204,1.9721 -0.611,2.7344 -0.405,0.7623 -0.983,1.3473 -1.735,1.755 -0.753,0.4043 -1.646,0.6065 -2.68,0.6065 z m -1.303,-2.098 h 1.208 c 0.571,0 1.053,-0.0961 1.447,-0.2884 0.398,-0.1955 0.698,-0.512 0.9,-0.9495 0.206,-0.4409 0.308,-1.0275 0.308,-1.76 0,-0.7325 -0.102,-1.3158 -0.308,-1.75 -0.205,-0.4375 -0.509,-0.7523 -0.91,-0.9446 -0.397,-0.1955 -0.888,-0.2933 -1.471,-0.2933 h -1.174 z m 14.567,-8.0838 v 10.1818 h -2.461 v -10.1818 z m 5.552,1.9986 v -1.9986 h 8.606 v 1.9986 h -3.088 v 8.1832 h -2.426 v -8.1832 z m 23.293,3.0923 c 0,1.1203 -0.216,2.0698 -0.647,2.8487 -0.43,0.7789 -1.014,1.3705 -1.75,1.7749 -0.732,0.4043 -1.554,0.6065 -2.466,0.6065 -0.914,0 -1.738,-0.2038 -2.47,-0.6115 -0.733,-0.4077 -1.315,-0.9993 -1.745,-1.7749 -0.428,-0.7788 -0.642,-1.7268 -0.642,-2.8437 0,-1.1203 0.214,-2.0698 0.642,-2.8487 0.43,-0.7789 1.012,-1.3705 1.745,-1.7749 0.732,-0.4043 1.556,-0.6065 2.47,-0.6065 0.912,0 1.734,0.2022 2.466,0.6065 0.736,0.4044 1.32,0.996 1.75,1.7749 0.431,0.7789 0.647,1.7284 0.647,2.8487 z m -2.516,0 c 0,-0.6629 -0.094,-1.223 -0.283,-1.6804 -0.186,-0.4574 -0.454,-0.8037 -0.806,-1.0391 -0.348,-0.2353 -0.767,-0.353 -1.258,-0.353 -0.487,0 -0.906,0.1177 -1.257,0.353 -0.352,0.2354 -0.622,0.5817 -0.811,1.0391 -0.185,0.4574 -0.278,1.0175 -0.278,1.6804 0,0.6629 0.093,1.223 0.278,1.6804 0.189,0.4574 0.459,0.8037 0.811,1.0391 0.351,0.2353 0.77,0.3529 1.257,0.3529 0.491,0 0.91,-0.1176 1.258,-0.3529 0.352,-0.2354 0.62,-0.5817 0.806,-1.0391 0.189,-0.4574 0.283,-1.0175 0.283,-1.6804 z m 8.292,5.0909 v -10.1818 h 4.206 c 0.763,0 1.421,0.1375 1.974,0.4126 0.557,0.2718 0.986,0.6629 1.288,1.1733 0.301,0.5071 0.452,1.1087 0.452,1.8047 0,0.706 -0.154,1.3059 -0.462,1.7997 -0.308,0.4906 -0.746,0.8651 -1.313,1.1236 -0.566,0.2552 -1.238,0.3828 -2.013,0.3828 h -2.66 v -1.9389 h 2.202 c 0.372,0 0.682,-0.0481 0.93,-0.1442 0.252,-0.0994 0.443,-0.2486 0.572,-0.4474 0.129,-0.2022 0.194,-0.4607 0.194,-0.7756 0,-0.3149 -0.065,-0.575 -0.194,-0.7805 -0.129,-0.2088 -0.32,-0.3646 -0.572,-0.4674 -0.252,-0.106 -0.562,-0.1591 -0.93,-0.1591 h -1.213 v 8.1982 z m 5.733,-4.6534 2.535,4.6534 h -2.684 l -2.486,-4.6534 z"
       fill="#ffffff"
       id="path6" />
    <text
       xml:space="preserve"
       id="text7"
       style="font-size:14.6667px;line-height:0;letter-spacing:4.14px;writing-mode:lr-tb;direction:ltr;white-space:pre;shape-inside:url(#rect8);fill:#ffffff"
       transform="matrix(0.9474287,0,0,0.9474287,9.28948,35.958414)"><tspan
         x="196.74609"
         y="-12.993696"
         id="tspan2"><tspan
           style="font-weight:bold;font-family:'Noto Sans';-inkscape-font-specification:'Noto Sans, Bold'"
           id="tspan1">SURVEYS</tspan></tspan></text>
  </g>
</svg>
